<?xml version="1.0" standalone="no"?>
<svg xmlns="http://www.w3.org/2000/svg" width="323.59375" height="1740"><g class="legend" id="id81" transform="translate(0,1700)" style="font: 10px sans-serif;"><rect width="18" height="18" x="0" style="fill: rgb(240, 2, 127);"/><text y="9" dy=".35em" text-anchor="start" x="24">D_0__Bacteria;D_1__Thermodesulfobacteria</text></g><g class="legend" id="id82" transform="translate(0,1680)" style="font: 10px sans-serif;"><rect width="18" height="18" x="0" style="fill: rgb(56, 108, 176);"/><text y="9" dy=".35em" text-anchor="start" x="24">D_0__Bacteria;D_1__Aerophobetes</text></g><g class="legend" id="id83" transform="translate(0,1660)" style="font: 10px sans-serif;"><rect width="18" height="18" x="0" style="fill: rgb(255, 255, 153);"/><text y="9" dy=".35em" text-anchor="start" x="24">D_0__Bacteria;D_1__WS6</text></g><g class="legend" id="id85" transform="translate(0,1640)" style="font: 10px sans-serif;"><rect width="18" height="18" x="0" style="fill: rgb(253, 192, 134);"/><text y="9" dy=".35em" text-anchor="start" x="24">D_0__Bacteria;D_1__MD2896-B216</text></g><g class="legend" id="id79" transform="translate(0,1620)" style="font: 10px sans-serif;"><rect width="18" height="18" x="0" style="fill: rgb(190, 174, 212);"/><text y="9" dy=".35em" text-anchor="start" x="24">D_0__Bacteria;D_1__TA06</text></g><g class="legend" id="id75" transform="translate(0,1600)" style="font: 10px sans-serif;"><rect width="18" height="18" x="0" style="fill: rgb(127, 201, 127);"/><text y="9" dy=".35em" text-anchor="start" x="24">D_0__Bacteria;D_1__Tectomicrobia</text></g><g class="legend" id="id84" transform="translate(0,1580)" style="font: 10px sans-serif;"><rect width="18" height="18" x="0" style="fill: rgb(102, 102, 102);"/><text y="9" dy=".35em" text-anchor="start" x="24">D_0__Archaea;D_1__MSBL1</text></g><g class="legend" id="id72" transform="translate(0,1560)" style="font: 10px sans-serif;"><rect width="18" height="18" x="0" style="fill: rgb(191, 91, 23);"/><text y="9" dy=".35em" text-anchor="start" x="24">D_0__Archaea;D_1__Parvarchaeota</text></g><g class="legend" id="id73" transform="translate(0,1540)" style="font: 10px sans-serif;"><rect width="18" height="18" x="0" style="fill: rgb(240, 2, 127);"/><text y="9" dy=".35em" text-anchor="start" x="24">D_0__Archaea;D_1__Marine Hydrothermal Vent Group 1(MHVG-1)</text></g><g class="legend" id="id69" transform="translate(0,1520)" style="font: 10px sans-serif;"><rect width="18" height="18" x="0" style="fill: rgb(56, 108, 176);"/><text y="9" dy=".35em" text-anchor="start" x="24">D_0__Bacteria;D_1__Poribacteria</text></g><g class="legend" id="id76" transform="translate(0,1500)" style="font: 10px sans-serif;"><rect width="18" height="18" x="0" style="fill: rgb(255, 255, 153); cursor: pointer;"/><text y="9" dy=".35em" text-anchor="start" x="24">D_0__Archaea;D_1__pMC2A209</text></g><g class="legend" id="id78" transform="translate(0,1480)" style="font: 10px sans-serif;"><rect width="18" height="18" x="0" style="fill: rgb(253, 192, 134);"/><text y="9" dy=".35em" text-anchor="start" x="24">D_0__Archaea;D_1__Candidate division YNPFFA</text></g><g class="legend" id="id80" transform="translate(0,1460)" style="font: 10px sans-serif;"><rect width="18" height="18" x="0" style="fill: rgb(190, 174, 212);"/><text y="9" dy=".35em" text-anchor="start" x="24">D_0__Bacteria;D_1__Candidatus Berkelbacteria</text></g><g class="legend" id="id74" transform="translate(0,1440)" style="font: 10px sans-serif;"><rect width="18" height="18" x="0" style="fill: rgb(127, 201, 127);"/><text y="9" dy=".35em" text-anchor="start" x="24">D_0__Bacteria;D_1__CPR2</text></g><g class="legend" id="id77" transform="translate(0,1420)" style="font: 10px sans-serif;"><rect width="18" height="18" x="0" style="fill: rgb(102, 102, 102);"/><text y="9" dy=".35em" text-anchor="start" x="24">D_0__Archaea;D_1__Hadesarchaea</text></g><g class="legend" id="id70" transform="translate(0,1400)" style="font: 10px sans-serif;"><rect width="18" height="18" x="0" style="fill: rgb(191, 91, 23);"/><text y="9" dy=".35em" text-anchor="start" x="24">D_0__Bacteria;D_1__Aquificae</text></g><g class="legend" id="id59" transform="translate(0,1380)" style="font: 10px sans-serif;"><rect width="18" height="18" x="0" style="fill: rgb(240, 2, 127);"/><text y="9" dy=".35em" text-anchor="start" x="24">D_0__Archaea;D_1__Aigarchaeota</text></g><g class="legend" id="id68" transform="translate(0,1360)" style="font: 10px sans-serif;"><rect width="18" height="18" x="0" style="fill: rgb(56, 108, 176);"/><text y="9" dy=".35em" text-anchor="start" x="24">D_0__Bacteria;D_1__SR1 (Absconditabacteria)</text></g><g class="legend" id="id60" transform="translate(0,1340)" style="font: 10px sans-serif;"><rect width="18" height="18" x="0" style="fill: rgb(255, 255, 153);"/><text y="9" dy=".35em" text-anchor="start" x="24">D_0__Bacteria;D_1__Synergistetes</text></g><g class="legend" id="id66" transform="translate(0,1320)" style="font: 10px sans-serif;"><rect width="18" height="18" x="0" style="fill: rgb(253, 192, 134);"/><text y="9" dy=".35em" text-anchor="start" x="24">D_0__Bacteria;D_1__Acetothermia</text></g><g class="legend" id="id71" transform="translate(0,1300)" style="font: 10px sans-serif;"><rect width="18" height="18" x="0" style="fill: rgb(190, 174, 212);"/><text y="9" dy=".35em" text-anchor="start" x="24">D_0__Bacteria;D_1__WWE3</text></g><g class="legend" id="id67" transform="translate(0,1280)" style="font: 10px sans-serif;"><rect width="18" height="18" x="0" style="fill: rgb(127, 201, 127);"/><text y="9" dy=".35em" text-anchor="start" x="24">D_0__Archaea;D_1__Altiarchaeales</text></g><g class="legend" id="id53" transform="translate(0,1260)" style="font: 10px sans-serif;"><rect width="18" height="18" x="0" style="fill: rgb(102, 102, 102);"/><text y="9" dy=".35em" text-anchor="start" x="24">D_0__Bacteria;D_1__WA-aaa01f12</text></g><g class="legend" id="id61" transform="translate(0,1240)" style="font: 10px sans-serif;"><rect width="18" height="18" x="0" style="fill: rgb(191, 91, 23);"/><text y="9" dy=".35em" text-anchor="start" x="24">D_0__Bacteria;D_1__FCPU426</text></g><g class="legend" id="id57" transform="translate(0,1220)" style="font: 10px sans-serif;"><rect width="18" height="18" x="0" style="fill: rgb(240, 2, 127);"/><text y="9" dy=".35em" text-anchor="start" x="24">D_0__Archaea;D_1__Miscellaneous Euryarchaeotic Group(MEG)</text></g><g class="legend" id="id64" transform="translate(0,1200)" style="font: 10px sans-serif;"><rect width="18" height="18" x="0" style="fill: rgb(56, 108, 176);"/><text y="9" dy=".35em" text-anchor="start" x="24">D_0__Bacteria;D_1__Peregrinibacteria</text></g><g class="legend" id="id56" transform="translate(0,1180)" style="font: 10px sans-serif;"><rect width="18" height="18" x="0" style="fill: rgb(255, 255, 153);"/><text y="9" dy=".35em" text-anchor="start" x="24">D_0__Bacteria;D_1__Armatimonadetes</text></g><g class="legend" id="id65" transform="translate(0,1160)" style="font: 10px sans-serif;"><rect width="18" height="18" x="0" style="fill: rgb(253, 192, 134);"/><text y="9" dy=".35em" text-anchor="start" x="24">D_0__Bacteria;D_1__Gracilibacteria</text></g><g class="legend" id="id50" transform="translate(0,1140)" style="font: 10px sans-serif;"><rect width="18" height="18" x="0" style="fill: rgb(190, 174, 212);"/><text y="9" dy=".35em" text-anchor="start" x="24">D_0__Bacteria;D_1__SBR1093</text></g><g class="legend" id="id63" transform="translate(0,1120)" style="font: 10px sans-serif;"><rect width="18" height="18" x="0" style="fill: rgb(127, 201, 127);"/><text y="9" dy=".35em" text-anchor="start" x="24">D_0__Bacteria;D_1__WS1</text></g><g class="legend" id="id54" transform="translate(0,1100)" style="font: 10px sans-serif;"><rect width="18" height="18" x="0" style="fill: rgb(102, 102, 102);"/><text y="9" dy=".35em" text-anchor="start" x="24">D_0__Archaea;D_1__WSA2</text></g><g class="legend" id="id58" transform="translate(0,1080)" style="font: 10px sans-serif;"><rect width="18" height="18" x="0" style="fill: rgb(191, 91, 23); cursor: pointer;"/><text y="9" dy=".35em" text-anchor="start" x="24">D_0__Archaea;D_1__Diapherotrites</text></g><g class="legend" id="id38" transform="translate(0,1060)" style="font: 10px sans-serif;"><rect width="18" height="18" x="0" style="fill: rgb(240, 2, 127);"/><text y="9" dy=".35em" text-anchor="start" x="24">D_0__Archaea;D_1__Nanoarchaeota</text></g><g class="legend" id="id48" transform="translate(0,1040)" style="font: 10px sans-serif;"><rect width="18" height="18" x="0" style="fill: rgb(56, 108, 176);"/><text y="9" dy=".35em" text-anchor="start" x="24">D_0__Archaea;D_1__Ancient Archaeal Group(AAG)</text></g><g class="legend" id="id47" transform="translate(0,1020)" style="font: 10px sans-serif;"><rect width="18" height="18" x="0" style="fill: rgb(255, 255, 153);"/><text y="9" dy=".35em" text-anchor="start" x="24">D_0__Bacteria;D_1__PAUC34f</text></g><g class="legend" id="id55" transform="translate(0,1000)" style="font: 10px sans-serif;"><rect width="18" height="18" x="0" style="fill: rgb(253, 192, 134);"/><text y="9" dy=".35em" text-anchor="start" x="24">D_0__Bacteria;D_1__Elusimicrobia</text></g><g class="legend" id="id43" transform="translate(0,980)" style="font: 10px sans-serif;"><rect width="18" height="18" x="0" style="fill: rgb(190, 174, 212);"/><text y="9" dy=".35em" text-anchor="start" x="24">D_0__Bacteria;D_1__Thermotogae</text></g><g class="legend" id="id49" transform="translate(0,960)" style="font: 10px sans-serif;"><rect width="18" height="18" x="0" style="fill: rgb(127, 201, 127);"/><text y="9" dy=".35em" text-anchor="start" x="24">D_0__Bacteria;D_1__Hydrogenedentes</text></g><g class="legend" id="id62" transform="translate(0,940)" style="font: 10px sans-serif;"><rect width="18" height="18" x="0" style="fill: rgb(102, 102, 102);"/><text y="9" dy=".35em" text-anchor="start" x="24">D_0__Archaea;D_1__Crenarchaeota</text></g><g class="legend" id="id39" transform="translate(0,920)" style="font: 10px sans-serif;"><rect width="18" height="18" x="0" style="fill: rgb(191, 91, 23);"/><text y="9" dy=".35em" text-anchor="start" x="24">D_0__Bacteria;D_1__Chlorobi</text></g><g class="legend" id="id52" transform="translate(0,900)" style="font: 10px sans-serif;"><rect width="18" height="18" x="0" style="fill: rgb(240, 2, 127);"/><text y="9" dy=".35em" text-anchor="start" x="24">D_0__Bacteria;D_1__TM6 (Dependentiae)</text></g><g class="legend" id="id31" transform="translate(0,880)" style="font: 10px sans-serif;"><rect width="18" height="18" x="0" style="fill: rgb(56, 108, 176);"/><text y="9" dy=".35em" text-anchor="start" x="24">D_0__Bacteria;D_1__Tenericutes</text></g><g class="legend" id="id45" transform="translate(0,860)" style="font: 10px sans-serif;"><rect width="18" height="18" x="0" style="fill: rgb(255, 255, 153);"/><text y="9" dy=".35em" text-anchor="start" x="24">D_0__Bacteria;D_1__WS2</text></g><g class="legend" id="id34" transform="translate(0,840)" style="font: 10px sans-serif;"><rect width="18" height="18" x="0" style="fill: rgb(253, 192, 134);"/><text y="9" dy=".35em" text-anchor="start" x="24">D_0__Bacteria;D_1__FL0428B-PF49</text></g><g class="legend" id="id32" transform="translate(0,820)" style="font: 10px sans-serif;"><rect width="18" height="18" x="0" style="fill: rgb(190, 174, 212);"/><text y="9" dy=".35em" text-anchor="start" x="24">D_0__Bacteria;D_1__Marinimicrobia (SAR406 clade)</text></g><g class="legend" id="id40" transform="translate(0,800)" style="font: 10px sans-serif;"><rect width="18" height="18" x="0" style="fill: rgb(127, 201, 127);"/><text y="9" dy=".35em" text-anchor="start" x="24">D_0__Bacteria;D_1__Fusobacteria</text></g><g class="legend" id="id37" transform="translate(0,780)" style="font: 10px sans-serif;"><rect width="18" height="18" x="0" style="fill: rgb(102, 102, 102);"/><text y="9" dy=".35em" text-anchor="start" x="24">D_0__Bacteria;D_1__Microgenomates</text></g><g class="legend" id="id27" transform="translate(0,760)" style="font: 10px sans-serif;"><rect width="18" height="18" x="0" style="fill: rgb(191, 91, 23);"/><text y="9" dy=".35em" text-anchor="start" x="24">D_0__Bacteria;D_1__Saccharibacteria</text></g><g class="legend" id="id51" transform="translate(0,740)" style="font: 10px sans-serif;"><rect width="18" height="18" x="0" style="fill: rgb(240, 2, 127);"/><text y="9" dy=".35em" text-anchor="start" x="24">D_0__Bacteria;D_1__Lentisphaerae</text></g><g class="legend" id="id46" transform="translate(0,720)" style="font: 10px sans-serif;"><rect width="18" height="18" x="0" style="fill: rgb(56, 108, 176);"/><text y="9" dy=".35em" text-anchor="start" x="24">D_0__Bacteria;D_1__LCP-89</text></g><g class="legend" id="id29" transform="translate(0,700)" style="font: 10px sans-serif;"><rect width="18" height="18" x="0" style="fill: rgb(255, 255, 153);"/><text y="9" dy=".35em" text-anchor="start" x="24">D_0__Bacteria;D_1__AC1</text></g><g class="legend" id="id24" transform="translate(0,680)" style="font: 10px sans-serif;"><rect width="18" height="18" x="0" style="fill: rgb(253, 192, 134);"/><text y="9" dy=".35em" text-anchor="start" x="24">D_0__Bacteria;D_1__Deinococcus-Thermus</text></g><g class="legend" id="id41" transform="translate(0,660)" style="font: 10px sans-serif;"><rect width="18" height="18" x="0" style="fill: rgb(190, 174, 212);"/><text y="9" dy=".35em" text-anchor="start" x="24">D_0__Archaea;D_1__Aenigmarchaeota</text></g><g class="legend" id="id44" transform="translate(0,640)" style="font: 10px sans-serif;"><rect width="18" height="18" x="0" style="fill: rgb(127, 201, 127);"/><text y="9" dy=".35em" text-anchor="start" x="24">D_0__Bacteria;D_1__BRC1</text></g><g class="legend" id="id35" transform="translate(0,620)" style="font: 10px sans-serif;"><rect width="18" height="18" x="0" style="fill: rgb(102, 102, 102);"/><text y="9" dy=".35em" text-anchor="start" x="24">D_0__Archaea;D_1__Marine Hydrothermal Vent Group(MHVG)</text></g><g class="legend" id="id20" transform="translate(0,600)" style="font: 10px sans-serif;"><rect width="18" height="18" x="0" style="fill: rgb(191, 91, 23);"/><text y="9" dy=".35em" text-anchor="start" x="24">D_0__Bacteria;D_1__Parcubacteria</text></g><g class="legend" id="id30" transform="translate(0,580)" style="font: 10px sans-serif;"><rect width="18" height="18" x="0" style="fill: rgb(240, 2, 127);"/><text y="9" dy=".35em" text-anchor="start" x="24">D_0__Bacteria;D_1__Chlamydiae</text></g><g class="legend" id="id19" transform="translate(0,560)" style="font: 10px sans-serif;"><rect width="18" height="18" x="0" style="fill: rgb(56, 108, 176);"/><text y="9" dy=".35em" text-anchor="start" x="24">D_0__Bacteria;D_1__GN01</text></g><g class="legend" id="id22" transform="translate(0,540)" style="font: 10px sans-serif;"><rect width="18" height="18" x="0" style="fill: rgb(255, 255, 153);"/><text y="9" dy=".35em" text-anchor="start" x="24">D_0__Bacteria;D_1__Cloacimonetes</text></g><g class="legend" id="id25" transform="translate(0,520)" style="font: 10px sans-serif;"><rect width="18" height="18" x="0" style="fill: rgb(253, 192, 134);"/><text y="9" dy=".35em" text-anchor="start" x="24">D_0__Bacteria;D_1__Nitrospirae</text></g><g class="legend" id="id33" transform="translate(0,500)" style="font: 10px sans-serif;"><rect width="18" height="18" x="0" style="fill: rgb(190, 174, 212);"/><text y="9" dy=".35em" text-anchor="start" x="24">D_0__Bacteria;D_1__Fibrobacteres</text></g><g class="legend" id="id21" transform="translate(0,480)" style="font: 10px sans-serif;"><rect width="18" height="18" x="0" style="fill: rgb(127, 201, 127);"/><text y="9" dy=".35em" text-anchor="start" x="24">D_0__Bacteria;D_1__Atribacteria</text></g><g class="legend" id="id42" transform="translate(0,460)" style="font: 10px sans-serif;"><rect width="18" height="18" x="0" style="fill: rgb(102, 102, 102);"/><text y="9" dy=".35em" text-anchor="start" x="24">D_0__Bacteria;D_1__Omnitrophica</text></g><g class="legend" id="id18" transform="translate(0,440)" style="font: 10px sans-serif;"><rect width="18" height="18" x="0" style="fill: rgb(191, 91, 23);"/><text y="9" dy=".35em" text-anchor="start" x="24">D_0__Bacteria;D_1__Nitrospinae</text></g><g class="legend" id="id23" transform="translate(0,420)" style="font: 10px sans-serif;"><rect width="18" height="18" x="0" style="fill: rgb(240, 2, 127);"/><text y="9" dy=".35em" text-anchor="start" x="24">D_0__Archaea;D_1__Lokiarchaeota</text></g><g class="legend" id="id36" transform="translate(0,400)" style="font: 10px sans-serif;"><rect width="18" height="18" x="0" style="fill: rgb(56, 108, 176);"/><text y="9" dy=".35em" text-anchor="start" x="24">D_0__Archaea;D_1__Woesearchaeota (DHVEG-6)</text></g><g class="legend" id="id28" transform="translate(0,380)" style="font: 10px sans-serif;"><rect width="18" height="18" x="0" style="fill: rgb(255, 255, 153);"/><text y="9" dy=".35em" text-anchor="start" x="24">D_0__Bacteria;D_1__RBG-1 (Zixibacteria)</text></g><g class="legend" id="id26" transform="translate(0,360)" style="font: 10px sans-serif;"><rect width="18" height="18" x="0" style="fill: rgb(253, 192, 134);"/><text y="9" dy=".35em" text-anchor="start" x="24">D_0__Archaea;D_1__Euryarchaeota</text></g><g class="legend" id="id9" transform="translate(0,340)" style="font: 10px sans-serif;"><rect width="18" height="18" x="0" style="fill: rgb(190, 174, 212);"/><text y="9" dy=".35em" text-anchor="start" x="24">D_0__Archaea;D_1__Thaumarchaeota</text></g><g class="legend" id="id17" transform="translate(0,320)" style="font: 10px sans-serif;"><rect width="18" height="18" x="0" style="fill: rgb(127, 201, 127);"/><text y="9" dy=".35em" text-anchor="start" x="24">D_0__Bacteria;D_1__KSB3 (Modulibacteria)</text></g><g class="legend" id="id13" transform="translate(0,300)" style="font: 10px sans-serif;"><rect width="18" height="18" x="0" style="fill: rgb(102, 102, 102);"/><text y="9" dy=".35em" text-anchor="start" x="24">D_0__Archaea;D_1__Bathyarchaeota</text></g><g class="legend" id="id14" transform="translate(0,280)" style="font: 10px sans-serif;"><rect width="18" height="18" x="0" style="fill: rgb(191, 91, 23);"/><text y="9" dy=".35em" text-anchor="start" x="24">D_0__Bacteria;D_1__Ignavibacteriae</text></g><g class="legend" id="id12" transform="translate(0,260)" style="font: 10px sans-serif;"><rect width="18" height="18" x="0" style="fill: rgb(240, 2, 127);"/><text y="9" dy=".35em" text-anchor="start" x="24">D_0__Bacteria;D_1__Aminicenantes</text></g><g class="legend" id="id10" transform="translate(0,240)" style="font: 10px sans-serif;"><rect width="18" height="18" x="0" style="fill: rgb(56, 108, 176);"/><text y="9" dy=".35em" text-anchor="start" x="24">D_0__Bacteria;D_1__Spirochaetae</text></g><g class="legend" id="id15" transform="translate(0,220)" style="font: 10px sans-serif;"><rect width="18" height="18" x="0" style="fill: rgb(255, 255, 153);"/><text y="9" dy=".35em" text-anchor="start" x="24">D_0__Bacteria;D_1__Deferribacteres</text></g><g class="legend" id="id16" transform="translate(0,200)" style="font: 10px sans-serif;"><rect width="18" height="18" x="0" style="fill: rgb(253, 192, 134); cursor: pointer;"/><text y="9" dy=".35em" text-anchor="start" x="24">D_0__Bacteria;D_1__Firmicutes</text></g><g class="legend" id="id8" transform="translate(0,180)" style="font: 10px sans-serif;"><rect width="18" height="18" x="0" style="fill: rgb(190, 174, 212);"/><text y="9" dy=".35em" text-anchor="start" x="24">D_0__Bacteria;D_1__Gemmatimonadetes</text></g><g class="legend" id="id11" transform="translate(0,160)" style="font: 10px sans-serif;"><rect width="18" height="18" x="0" style="fill: rgb(127, 201, 127);"/><text y="9" dy=".35em" text-anchor="start" x="24">D_0__Bacteria;D_1__Latescibacteria</text></g><g class="legend" id="id7" transform="translate(0,140)" style="font: 10px sans-serif;"><rect width="18" height="18" x="0" style="fill: rgb(102, 102, 102);"/><text y="9" dy=".35em" text-anchor="start" x="24">D_0__Bacteria;D_1__Verrucomicrobia</text></g><g class="legend" id="id6" transform="translate(0,120)" style="font: 10px sans-serif;"><rect width="18" height="18" x="0" style="fill: rgb(191, 91, 23);"/><text y="9" dy=".35em" text-anchor="start" x="24">D_0__Bacteria;D_1__Acidobacteria</text></g><g class="legend" id="id0" transform="translate(0,100)" style="font: 10px sans-serif;"><rect width="18" height="18" x="0" style="fill: rgb(240, 2, 127);"/><text y="9" dy=".35em" text-anchor="start" x="24">D_0__Bacteria;D_1__Cyanobacteria</text></g><g class="legend" id="id3" transform="translate(0,80)" style="font: 10px sans-serif;"><rect width="18" height="18" x="0" style="fill: rgb(56, 108, 176);"/><text y="9" dy=".35em" text-anchor="start" x="24">D_0__Bacteria;D_1__Actinobacteria</text></g><g class="legend" id="id5" transform="translate(0,60)" style="font: 10px sans-serif;"><rect width="18" height="18" x="0" style="fill: rgb(255, 255, 153);"/><text y="9" dy=".35em" text-anchor="start" x="24">D_0__Bacteria;D_1__Planctomycetes</text></g><g class="legend" id="id4" transform="translate(0,40)" style="font: 10px sans-serif;"><rect width="18" height="18" x="0" style="fill: rgb(253, 192, 134);"/><text y="9" dy=".35em" text-anchor="start" x="24">D_0__Bacteria;D_1__Chloroflexi</text></g><g class="legend" id="id1" transform="translate(0,20)" style="font: 10px sans-serif;"><rect width="18" height="18" x="0" style="fill: rgb(190, 174, 212);"/><text y="9" dy=".35em" text-anchor="start" x="24">D_0__Bacteria;D_1__Bacteroidetes</text></g><g class="legend" id="id2" transform="translate(0,0)" style="font: 10px sans-serif;"><rect width="18" height="18" x="0" style="fill: rgb(127, 201, 127);"/><text y="9" dy=".35em" text-anchor="start" x="24">D_0__Bacteria;D_1__Proteobacteria</text></g></svg>